# xmcd
#
# Track frame offsets: 
#        150
#        21143
#        43840
#        70625
#        89992
#        115735
#        126846
#        150620
#        168514
#        192284
#        206713
#        224791
#        244613
#        265305
#        283674
#        308852
#        324266
#
# Disc length: 4784 seconds
#
# Revision: 2
# Processed by: cddbd v1.5.2PL0 Copyright (c) Steve Scherf et al.
# Submitted via: ExactAudioCopy v1.1
#
DISCID=0212ae11
DTITLE=Various Artist - Akella Presents - vol.79 - Electric and Rockin'
DTITLE=Blues  CD2
DYEAR=2016
DGENRE=Blues
TTITLE0=The Stumble - Bullet for the Blind
TTITLE1=Royal Southern Brotherhood - I've Seen Enough To Know
TTITLE2=Bargel and Heuser - I Got To Start From Zero
TTITLE3=Ryan Hartt and The Blue Hearts - Sleepwalkin'
TTITLE4=Too Slim And The Taildraggers - More Must Be Better
TTITLE5=Albert Castiglia - What I Like About Miami
TTITLE6=The Blues Rebels - Burning Deep
TTITLE7=Sauce Boss - That's How It Feels
TTITLE8=Nick Moss Band - Walk Away
TTITLE9=Thorbjorn Risager - Burning Up
TTITLE10=Dave Steffen Band - No Mercy
TTITLE11=Trampled Under Foot - Evil Train
TTITLE12=Billy Cox - Mamacita
TTITLE13=Crooked Eye Tommy - I Stole The Blues
TTITLE14=Toronzo Cannon - Hard Luck
TTITLE15=The Lefty Collins Band - Light of Day
TTITLE16=Daniel Castro - I'll Play The Blues For You
EXTD=
EXTT0=
EXTT1=
EXTT2=
EXTT3=
EXTT4=
EXTT5=
EXTT6=
EXTT7=
EXTT8=
EXTT9=
EXTT10=
EXTT11=
EXTT12=
EXTT13=
EXTT14=
EXTT15=
EXTT16=
PLAYORDER=
